<?xml version="1.0" encoding="utf-8"?>
<!-- Generator: Adobe Illustrator 21.1.0, SVG Export Plug-In . SVG Version: 6.00 Build 0)  -->
<svg version="1.1" id="Layer_1" xmlns="http://www.w3.org/2000/svg" xmlns:xlink="http://www.w3.org/1999/xlink" x="0px" y="0px"
	 viewBox="0 0 568 205" style="enable-background:new 0 0 568 205;" xml:space="preserve">
<style type="text/css">
	.st0{fill:#FFFFFF;}
</style>
<path class="st0" d="M214.3,27.5c4.7-0.1,6.9-2,7.5-6.6c0.8-6.3-0.9-12.2-2.5-18.7c-1,1.5-1.8,2.6-2.5,3.7
	c-6.6,9.9-14.3,18.9-23.7,26.2c-13.8,10.7-29.8,15.5-46.9,17.2c-16.5,1.6-33,1.1-49.5,1.8c-27.1,1.2-52.8,7.2-76.3,21.3
	c-1.4,0.8-2.3,1.8-2.8,3.3c-4.5,13.1-5.6,26.5-3.9,40.1c1.1,9.2,3.9,17.9,7.6,26.4c3.4-2.6,3.4-2.6,2.7-4.3
	c-3.9-9.5-5.8-19.4-6.3-29.5c-0.4-9.4,0.9-18.6,5.7-27c2.4-4.3,4.4-4.5,7.8-1c0.8,0.8,1.5,1.7,2,2.7c1.8,3.5,3.2,7.2,3.9,11.1
	c2.1,11.4,3.1,22.9,1.3,34.9c1.9-1.3,3.4-2.5,5.1-3.4c3.1-1.6,3.5-3.2,2.3-6.8c-3.5-10.2-4.2-20.8-2.9-31.5
	c0.9-7.7,3.3-14.8,8.4-20.8c1.8-2.1,3.1-2,4.8,0C59,70.1,60.9,74,62,78.3c2,7.8,2.2,15.6,1.3,23.5c-0.4,4.1-1,8.1-1.5,12.5
	c3.3-1.7,6.2-3.3,9.3-4.6c1.3-0.6,1-1.2,0.6-2.1c-2.5-6.3-3.6-12.9-4-19.6c-0.5-10.3,1.4-20,8.9-27.7c1.4-1.4,2.3-1.6,3.6,0.1
	c1.7,2.1,2.8,4.4,3.4,7c2.6,12,2.3,24-0.9,36.2c1.6-0.7,3-1.4,4.4-2c1.4-0.7,3.1-1.1,3.9-2.2c0.8-1.2-1.2-2.4-1.3-3.9
	c0-0.8-0.4-1.6-0.5-2.4c-1.4-9.1-0.2-18,2.5-26.7c1.1-3.6,2.6-7.1,5.9-9.7c8.9,11.9,7.9,24.7,4.2,38c1-0.4,1.6-0.6,2.3-0.8
	c5.3-2.3,5.2-2.3,3.9-7.7c-2.4-9.8-1.7-19.3,4.1-27.9c1.9-2.9,2.5-2.8,4.2,0.3c2.4,4.1,2.6,8.7,2.7,13.2c0.1,5.4-0.9,10.6-1.4,16
	c5.5-1.2,5.3-1.2,4.7-6.3c-1.1-8.6-0.8-17,4.5-24.5c1.5-2.2,2.4-1.7,3.7,0c2.3,3.2,3,6.8,3.2,10.6c0.2,4.7-0.2,9.3-1.1,13.9
	c4.1-0.3,4.6-2.2,4.1-5.8c-1-6.9,0-13.7,4.3-19.7c1.7-2.3,2.3-2.2,3.8,0.3c1.7,3.1,2.3,6.4,2.3,9.9c0,3.2-0.8,6.4-1.3,9.8
	c1.6-0.7,3-1.4,4.3-2c0.8-0.3,0.9-0.7,0.7-1.6c-1.5-5.5,0.2-10.6,1.8-15.7c0.5-1.6,1.2-4.1,2.6-4.1c1.8,0,2.8,2.4,3.4,4.2
	c1.4,4,2.1,8.2,1.2,12.5c3-0.8,4.5-2,3.7-5.5c-0.8-3.9-0.3-7.9,1.4-11.6c0.5-1.1,1-2.9,2.4-2.8c1.2,0.1,1.8,1.7,2.3,3
	c1.3,3.4,1.2,7.1,1.2,11c0.8-0.4,1.3-0.8,1.8-1c2.2-0.9,3.5-1.8,1.9-4.5c-1.2-2.1-0.9-4.7-0.1-7.1c0.7-2.2,1.6-5.4,3.8-5.3
	c2.6,0,3.1,3.3,3.5,5.7c1.2,1.5-0.2,3.5,1.2,5c0.4-0.2,0.7-0.5,1.1-0.7c0.6-0.9,1.5-1.4,2.5-1.8c0.8-0.8,1.7-1.3,0.2-2.7
	c-2.1-1.9-1.9-8.1,0-10.3c0.7-0.9,1.4-0.5,2.1-0.1c1.9,1.1,2.9,2.9,3.2,4.9s0.9,2.7,3.2,1.7c-2.5,2.9-5.1,5.1-7.9,7.2
	c-0.6,0.8-1.5,1.4-2.4,1.8c-7.4,6-15.7,10.7-24,15.2C137.4,84.1,112.6,94,88.7,106c-13.8,6.9-27.4,14.4-40.2,23.1
	c-15.2,10.2-28.6,22.5-40.7,36.2c-2.5,2.8-3.9,5.9-3.9,9.6c0,7.6-0.1,15.2-0.1,22.8c0,1.1,0.1,2.1,0.9,3c0.8-0.5,0.8-1.3,1.1-1.9
	c3.6-10.1,7.8-20,13.6-29c4.6-7.2,9.9-13.8,16.3-19.5c1.3-1.1,2-1.5,2.6,0.6c0.6,2,1.6,3.9,2.5,5.8c8.8,17.7,27.4,25.5,47.8,22.4
	c-7.8-18.8-21.6-31.6-39.8-40.2c3.2-2.4,6.3-4.8,9.5-7.2c0.3,1.3,0.5,2.3,0.8,3.2c0.4,0.9,0.9,1.8,1.4,2.7
	c6,8.9,13.9,15.5,23.7,19.6c4.3,1.8,9,2.4,13.7,1.7c2.2-0.3,2.9-1,1.9-3.3c-2.1-5.3-4.9-10.2-8.6-14.6c-5.9-7-12.5-13.2-21.2-17
	c1.8-1.1,3.4-2.2,5.1-3.3c0.5-0.3,1.1-1,1.6,0.2c2.3,5.6,6.8,9.5,11.4,13.1c6.3,4.9,13.3,8.4,21.5,9.1c3.2,0.3,3.5-0.2,2.8-3.3
	c-0.1-0.5-0.2-1-0.5-1.4c-4.9-10.8-12.4-19.1-22.5-25.5c1.1-0.7,2.3-1.4,3.5-2.2c0.9-0.6,1.4-0.6,2.1,0.5c2.7,5,6.8,8.8,11.2,12.2
	c5.3,4,10.9,7.3,17.7,8c3.5,0.3,3.6,0.1,2.3-3.1c-2.6-6-5.9-11.5-10.1-16.5c-3.3-2.8-6.4-5.9-11-7.1c1.6-1.7,3.6-2,5.5-3.1
	c1,3.8,3.5,6.4,5.6,9.3c1.2,0.3,1.8,1.3,2.7,1.9c5.6,4.3,11.6,7.8,19,7.9c2.5,0,3.2-0.7,2.3-3.2c-3.6-9.7-9.5-17.2-19.9-20.5
	c0.7-1,1.8-1.1,2.6-1.6c2-1.3,2.9-1,4.7,1.1c6.3,7.4,14.3,12.4,24.3,13.6c1.9,0.2,2.3-0.2,1.6-2.1c-3.4-8.6-7.7-16.3-18.3-18.6
	c1.9-1,3.3-1.6,4.6-2.4c1.1-0.7,1.5-0.2,2,0.7c5.5,8.8,13.8,11.9,23.9,11.5c2.6-0.1,2.5-0.9,1.5-2.8c-3.7-7.3-9.6-12-17.9-13.9
	c1.4-1.3,3-1.7,4.4-2.5c1.3-0.8,2-0.6,2.8,0.7c4.5,7.2,11.5,9.1,19.4,8.7c5-0.3,5.1-0.6,2.5-5.1c-3-5.2-7.6-8.4-13.4-10.3
	c3.8-2.7,3.8-2.7,6.9-0.1c4.4,3.7,9.4,5.9,15.3,5.6c3.9-0.2,4.1-0.7,2-3.9c-3.2-4.9-8.1-6.9-14-8.1c1.7-1.2,3.1-2.2,4.4-3.2
	c0.6-0.5,1-0.3,1.4,0.3c3.7,5.1,9,5.6,14.7,5.1c1.5-0.1,3.8,0.2,4.2-1c0.5-1.6-1.3-3-2.4-4.2c-1.1-1.2-2.5-2-4-2.7
	c-2.3-1.1-4.8-1.4-7.6-1.9c1.1-0.9,2.1-1.6,2.9-2.5c1.4-1.5,2.2-1.4,3.7,0.2c4.4,4.7,10.1,5.2,15.3,1.5c-2.6-4.4-5.9-7.9-11.7-7.7
	c2.4-3.1,2.4-3.1,5.3-1.5c4.2,2.3,9.4,1.6,13-1.9c-2.7-3.6-6.5-4.7-11.7-5c1.8-1.1,1.8-3.1,4-1.9c4.9,2.6,7.3,2.2,11.6-1.6
	c-2.8-3.1-6.5-3-10.3-2.5c0.9-2.7,2-3.6,4.7-2.3c2.4,1.1,5,0.3,7-1.5c1.4-1.3,1.1-2.2-0.6-2.8c-2.2-0.8-4.5-0.7-6.8-0.6
	C212.2,27.9,212.9,27.5,214.3,27.5z M202.9,38.5c0.2-0.1,0.3-0.2,0.5-0.4c-2.2,3.4-4.4,5.4-6.8,7.9c-0.1-1.5,0.3-2.6-1.1-3.3
	c-0.7-0.3-1.1-1.6-1.4-2.6c-0.8-2.2,0.1-6.7,1.4-6.6c2.5,0.1,3.9,2.1,4.6,4.2C200.6,39.3,201.2,39.7,202.9,38.5
	c0.9-2.4-1.1-3.7-1.4-5.6c-0.3-1.9-1.1-4.5,0.6-5.3c1.9-0.9,3.1,1.5,4,3.2C207.5,33.3,206.8,35.2,202.9,38.5z M211.4,26.3
	c-0.7,1.4-1.5,2.8-2.3,4.1c-0.2-1.3,0.1-2.3-0.9-3.2c-0.4-0.4-0.7-1-0.9-1.5c-0.7-1.7-1-3.3,0.4-4.8c0.7-0.8,1.6-0.1,2.1,0.4
	C211.2,22.7,212.4,24.2,211.4,26.3z"/>
<path class="st0" d="M202.9,38.6L202.9,38.6L202.9,38.6L202.9,38.6z"/>
<path class="st0" d="M188.4,91.4c13.1-0.1,26.2-0.1,39.4-0.3c2.2,0,2.7,0.7,2.8,2.8c0.3,7.6,0.4,7.6-7.5,7.6c-7.7,0-7.7,0-7.7,7.9
	c0,10.5,0,20.9,0,31.4c0,3.1,0.2,6,3.3,8c-10.3,2.3-14-0.4-14.2-10.4c-0.2-10.8-0.2-21.6,0-32.4c0.1-3.3-0.6-4.9-4.3-4.5
	c-5.6,0.7-9.5-2-11.8-7.1C188.4,93.4,188.4,92.4,188.4,91.4z"/>
<path class="st0" d="M523.8,125c4.6-10.6,8.8-20.3,13.1-30.1c1.4-3.1,8.5-5.4,11.4-3.5c1.6,1,0.8,2.7,0.8,4.1c0.1,15,0,30,0,45
	c0,3.2-0.2,6.4,3.6,8.4c-10.8,2.1-14-0.4-14.5-10.5c-0.1-2.7-0.1-5.3-0.1-8s0-5.3-0.7-8.4c-2.3,5.1-4.7,10.2-7,15.3
	c-1.2,2.7-2,4.8-5.9,4.7c-3.6-0.1-5.7-0.7-7.1-4.4c-2-5.3-4.7-10.4-7.9-15.4c0,7.7-0.2,15.5,0.1,23.2c0.1,3.2-0.7,4.3-4.1,4.2
	c-7-0.2-7,0-7-7.1c0-13.3-0.1-26.7,0-40c0-4.4-0.5-8.3-4.8-11.1c3.8,0,7.7-0.3,11.5,0.1c3.3,0.4,5.4,2.8,6.7,6
	C515.6,106.4,519.5,115.2,523.8,125z"/>
<path class="st0" d="M373.7,111.3c1.9,3.7,4.4,6.3,8.4,4.5c3.4-1.5,5.7-4.5,4.9-8.4c-0.8-4.2-3.9-5.8-8.1-5.9
	c-11.5-0.3-11.5-0.3-11.5,11.2c0,10.8-0.1,21.7,0.1,32.5c0.1,3.4-0.6,4.6-4.3,4.5c-6.8-0.3-6.8,0-6.8-6.8c0-15.8,0.1-31.7-0.1-47.5
	c0-3.6,1-4.4,4.4-4.3c6.5,0.3,13,0,19.5,0.1c8.4,0.1,14.5,4.3,17,11.5c2.6,7.4,0.4,14.8-6.5,19.8c-2.6,1.9-1.9,3.4-0.9,5.3
	c1.8,3.6,3.7,7.1,5.5,10.6s3.5,7,5.6,11.2c-4.2,0-7.8-0.1-11.4,0c-1.9,0.1-2.5-1.2-3.2-2.6c-4.2-8.9-8.5-17.7-12.6-26.6
	C372.4,117.7,371.4,114.8,373.7,111.3z"/>
<path class="st0" d="M445.3,130.9c4.3,8.5,16.7,11.7,24.4,6.7c2.4-1.5,3.3-3.7,2.9-6.4c-0.4-2.8-2.1-4.5-4.9-4.9c-3-0.4-6-0.6-8.9-1
	c-9.7-1.1-16.2-7.5-16.5-16.3c-0.6-9.5,4.7-16,14.8-18c8.1-1.6,15.5,0.6,22.5,4.5c1.9,1,2.4,2.1,0.8,3.8c-0.2,0.2-0.4,0.5-0.6,0.8
	c-3.9,5.8-3.9,5.8-10.4,3.1c-3.9-1.6-8-2.4-12.1-0.9c-2.9,1.1-4.2,3.2-4,6.2c0.2,2.8,1.8,4.7,4.6,5.2c3.9,0.7,8,0.9,11.8,1.7
	c9,2.1,14,8.2,14,16.9c0,8.8-4.8,14.7-13.9,17c-6.5,1.6-12.9,1.2-19.2-1.1C442.2,144.9,440,138.3,445.3,130.9z"/>
<path class="st0" d="M294.2,91.2c1.5,0,3,0,4.5,0c6.1,0.1,8,1.7,8.8,7.8c1,7.6,0.3,15.3,0.5,23c0,2.3-0.1,4.7,0,7
	c0.4,6,5.2,10.4,10.8,10.2c5.6-0.2,9.7-4.4,9.8-10.5c0.2-11.2,0.3-22.3-0.1-33.5c-0.2-5.2,3-4,5.7-4c2.9-0.1,5.7-0.9,5.5,4.2
	c-0.5,10.8-0.1,21.7-0.2,32.5c-0.1,12.8-9.1,22.3-21.3,22.4c-11.8,0.1-21.2-9.3-21.4-21.8c-0.2-9.2,0-18.3,0-27.5
	C296.9,97.6,297.2,94.1,294.2,91.2z"/>
<path class="st0" d="M412,91.1c2,0,4,0,6,0c4,0.1,6.6,1.9,7.4,6c0.4,2.1,0.8,4.3,0.9,6.4c0.1,14,0,28,0.2,42
	c0.1,3.3-0.9,4.2-4.2,4.1c-7.6-0.1-7.6,0-7.6-7.7c0-14,0-28,0-42C414.7,96.9,414.8,93.9,412,91.1z"/>
<path class="st0" d="M508,189c0-7.3-0.1-14.6,0-21.9c0-1.3-1-3.2,1.2-3.8s3.7,0.3,4.9,2.3c2.4,4,5.1,8,8,11.8
	c0.2-4.6,0.8-9.2-0.2-13.7c4.4-0.4,5.4,0.4,5.6,4.9c0.3,6.8,0.3,13.6,0.4,20.4c-1.7,0-3.3,0-5,0c-4.6-3-6.3-8.1-9-12.2
	c-0.1,3.8,1.4,8.2-1,12.2C511.3,189,509.7,189,508,189z"/>
<path class="st0" d="M410,189c0.2-6.5,0.4-12.9,0.5-19.4c0-4.6,2.2-6.7,6.8-6.4c2.7,0.2,5.3,0.1,8,0c1.8-0.1,2.3,0.8,2.3,2.4
	c0,1.7-0.8,2.3-2.5,2.3c-2.2-0.1-4.3,0-6.5,0c-2.5,0-2.9,1.6-3.1,3.6c-0.2,2.5,1.1,2.7,3,2.6c1.5-0.1,3,0,4.5,0
	c1.7-0.1,2.9,0.1,2.8,2.4c-0.1,1.9-1.1,2.1-2.6,2.1s-3,0.1-4.5,0c-2.2-0.1-3.3,0.3-3.4,2.9c-0.1,2.9,1.2,3.4,3.6,3.2
	c1.2-0.1,2.4,0.2,3.5,0c3.7-0.6,5.5,0.8,5.5,4.5C422,189,416,189,410,189z"/>
<path class="st0" d="M322,189c-3.2-4.3-1.9-9.2-2-13.9c-0.1-11.8,0-11.8,11.7-11.8c1,0,2,0.1,3,0c1.6-0.1,2.4,0.5,2.4,2.2
	s-0.6,2.4-2.3,2.3c-2.2-0.1-4.3,0.1-6.5,0s-3.4,0.3-3.3,2.9c0.1,2.3,0.6,3.4,3.1,3.2c1.6-0.1,3.3,0.1,5,0c1.8-0.1,2.3,0.7,2.2,2.4
	c0,1.5-0.6,2.1-2.1,2c-1.7-0.1-3.3,0-5,0s-3.4-0.1-3.2,2.5c0.1,2,0.4,3.7,2.9,3.8c1.7,0.1,3.4,0.2,5,0c3.7-0.5,4.8,1,4.1,4.5
	C332,189,327,189,322,189z"/>
<path class="st0" d="M387,189c-0.8-4.9,2.9-7.9,4.9-11.6c1.6-3,3.7-5.8,6.1-9.6c-3.2,0-5.6,0-7.9,0c-1.6,0-2.5-0.4-2.5-2.2
	c0-1.7,0.6-2.4,2.3-2.4c4,0,8-0.3,11.9,0.1c4,0.4,2.4,3.3,1.4,5.1c-2.7,4.7-5.7,9.3-8.6,14c-0.3,0.5-0.9,1-0.4,1.6
	c2.4,3.4,10.3-4.3,9.8,5C398.3,189,392.7,189,387,189z"/>
<path class="st0" d="M460,189c-1.2-8.5,0.8-17.1-1.2-25.6c4.2-0.8,5.7,1.4,5.8,5.2c0.1,3.7,0.3,7.3,0,11c-0.4,4.3,1.3,5.6,5.3,5
	c1-0.2,2,0.1,3-0.1c3.6-0.6,4.8,1.1,4.1,4.4C471.3,189,465.7,189,460,189z"/>
<path class="st0" d="M313.6,166.7c-0.1-2,0-3.6-2.8-3.5c-2.6,0.1-2.3,1.7-2.4,3.4c-0.3,3.4,0.7,7-0.8,10.9
	c-2.8-4.4-5.4-8.3-7.8-12.2c-1.1-1.8-2.8-2.4-4.7-1.9c-2.1,0.5-1.2,2.5-1.2,3.8c-0.1,7.3,0,14.6,0.1,21.9c1.7,0,3.3,0,5,0
	c0-4.7,0-9.4,0-15.5c3.9,6,6.9,10.7,10,15.5c1.7,0,3.3,0,5,0C312.9,181.6,313.7,174.1,313.6,166.7z"/>
<path class="st0" d="M372.8,163.3c-2.5-0.7-4,0.5-4.5,3.1c-0.7,3.8-1.7,7.5-2.6,11.2c-2-3.7-3.2-7.4-4.3-11.2
	c-0.5-1.5-0.4-3.4-2.9-3.3c-2.4,0.1-2.4,1.9-2.8,3.4c-1.1,3.7-2.1,7.4-3.1,11c-1.8-3.3-2.9-6.4-3.4-9.6c-0.7-4.4-3.3-5.1-6.8-4.7
	c2.4,8.6,5.6,16.8,6.6,25.6c1.7,0,3.3,0,5,0c1.4-4.7,2.7-9.5,4.1-14.2c0.3,0,0.6-0.1,0.9-0.1c1.3,4.8,2.7,9.6,4,14.3
	c1.7,0,3.3,0,5,0c1.8-7.2,3.6-14.4,5.3-21.7C373.6,166,375.6,164.1,372.8,163.3z"/>
<path class="st0" d="M551.7,168c-3.2-6.3-9.3-4.3-14.6-4.8c-2.8-0.2-3.3,1-3.3,3.4c0.2,7.4,0.1,14.9,0.1,22.4c4.7,0,9.3,0,14,0
	C552.7,183.9,554.6,173.7,551.7,168z M547.1,181.8c-0.9,2.9-3.7,2.9-6.3,2.8c-3.2-0.1-1.6-2.6-1.9-4.1c-0.2-1.5,0-3-0.1-4.5
	c0-1.3-0.2-2.7,0.1-4c0.3-1.5-1.4-4,1.8-4.2c2.5-0.2,5.3-0.3,6.3,2.7C548.3,174.2,548.2,178.1,547.1,181.8z"/>
<path class="st0" d="M446.7,166.8c-0.7-1.8-1.6-3.4-3.7-3.5c-2.3-0.1-2.4,1.9-2.9,3.4c-2.7,7.4-5.4,14.9-8,22.3c1.7,0,3.3,0,5,0
	c0.8-5.6,5.1-4.3,8.7-4.4c3.2-0.1,3.2,2.2,3.3,4.4c2,0,4,0,6,0C452.2,181.6,449.4,174.2,446.7,166.8z M445.3,180.1
	c-1.1,0.5-2.8,0.5-3.9,0c-1.8-0.8-0.3-2.3,0-3.3c0.5-1.6,1.2-3,2-5.1c0.7,2,1.3,3.5,1.8,5C445.6,177.9,447.1,179.3,445.3,180.1z"/>
<path class="st0" d="M495.1,165.6c-0.5-1.6-1.9-2.3-3.5-2.3c-1.8,0-1.9,1.7-2.3,2.8c-2.8,7.6-5.5,15.3-8.2,22.9c1.7,0,3.3,0,5,0
	c0.6-5.3,4.6-4.3,8.1-4.4c3.4-0.2,3.4,2.2,3.9,4.4c1.7,0,3.3,0,5,0C501.6,180.8,497.5,173.5,495.1,165.6z M494.5,180
	c-1.2,0.5-3,0.5-4.3,0c-1.4-0.6-0.3-2.1,0-3c0.6-1.6,0.5-3.7,2.4-5c0.6,1.7,1.3,3.4,1.8,5C494.8,178,495.9,179.4,494.5,180z"/>
<path class="st0" d="M282.3,111.4c-0.4-11.8-9.6-20.8-21.2-20.9c-11.3-0.1-20.8,8.5-21.5,20c-0.4,6.3-0.4,12.7,0,19
	c0.7,12.3,10.1,21.1,21.8,20.7c11.9-0.4,20.9-9.9,20.9-22.3c0-2.3,0-4.7,0-7C282.3,117.7,282.4,114.6,282.3,111.4z M271.2,129.1
	c-0.3,5.7-5,10.1-10.4,10.1c-5.5,0-10.1-4.3-10.3-10.2c-0.2-5.8-0.2-11.7,0-17.5c0.2-5.9,4.8-10.1,10.4-10c5.6,0,10.2,4.7,10.3,10.6
	c0.1,2.7,0,5.3,0,8C271.2,123.1,271.4,126.1,271.2,129.1z"/>
</svg>
